<svg width="40" height="40" viewBox="0 0 40 40" fill="none" xmlns="http://www.w3.org/2000/svg">
<path fill-rule="evenodd" clip-rule="evenodd" d="M5.286 8.61913C3.33337 10.5717 3.33337 13.7144 3.33337 19.9998C3.33337 26.2852 3.33337 29.4279 5.286 31.3805C7.23862 33.3332 10.3813 33.3332 16.6667 33.3332H23.3334C29.6188 33.3332 32.7615 33.3332 34.7141 31.3805C36.6667 29.4279 36.6667 26.2852 36.6667 19.9998C36.6667 13.7144 36.6667 10.5717 34.7141 8.61913C32.7615 6.6665 29.6188 6.6665 23.3334 6.6665H16.6667C10.3813 6.6665 7.23862 6.6665 5.286 8.61913ZM30.9603 12.5329C31.4023 13.0633 31.3306 13.8515 30.8003 14.2934L27.1395 17.3441C25.6622 18.5752 24.4649 19.573 23.4081 20.2527C22.3073 20.9607 21.2352 21.408 20 21.408C18.7649 21.408 17.6928 20.9607 16.592 20.2527C15.5352 19.573 14.3379 18.5752 12.8606 17.3441L9.19981 14.2934C8.66946 13.8515 8.59781 13.0633 9.03976 12.5329C9.48172 12.0026 10.2699 11.9309 10.8003 12.3729L14.3984 15.3714C15.9534 16.6671 17.0329 17.5639 17.9443 18.1501C18.8266 18.7175 19.4249 18.908 20 18.908C20.5752 18.908 21.1735 18.7175 22.0557 18.1501C22.9672 17.5639 24.0467 16.6671 25.6017 15.3714L29.1998 12.3729C29.7302 11.9309 30.5184 12.0026 30.9603 12.5329Z" fill="white"/>
</svg>
