<svg width="40" height="40" viewBox="0 0 40 40" fill="none" xmlns="http://www.w3.org/2000/svg">
<path fill-rule="evenodd" clip-rule="evenodd" d="M20 3.3335C12.6362 3.3335 6.66663 10.0045 6.66663 17.5002C6.66663 24.9371 10.9222 33.0208 17.5617 36.1242C19.1095 36.8477 20.8904 36.8477 22.4382 36.1242C29.0778 33.0208 33.3333 24.9371 33.3333 17.5002C33.3333 10.0045 27.3638 3.3335 20 3.3335ZM20 20.0002C21.8409 20.0002 23.3333 18.5078 23.3333 16.6668C23.3333 14.8259 21.8409 13.3335 20 13.3335C18.159 13.3335 16.6666 14.8259 16.6666 16.6668C16.6666 18.5078 18.159 20.0002 20 20.0002Z" fill="white"/>
</svg>
