<svg width="40" height="40" viewBox="0 0 40 40" fill="none" xmlns="http://www.w3.org/2000/svg">
<path d="M16.7293 8.86012L17.811 10.7983C18.7871 12.5475 18.3953 14.842 16.8578 16.3795C16.8578 16.3795 16.8578 16.3795 16.8578 16.3795C16.8577 16.3796 14.993 18.2445 18.3741 21.6256C21.7546 25.0061 23.6195 23.1428 23.6203 23.142C23.6203 23.142 23.6203 23.142 23.6203 23.142C25.1578 21.6045 27.4523 21.2127 29.2015 22.1888L31.1397 23.2705C33.7809 24.7445 34.0928 28.4486 31.7712 30.7702C30.3762 32.1652 28.6673 33.2506 26.7781 33.3223C23.5979 33.4428 18.1971 32.638 12.7795 27.2203C7.36184 21.8027 6.55698 16.4019 6.67755 13.2216C6.74916 11.3325 7.83463 9.62356 9.22964 8.22856C11.5512 5.90697 15.2552 6.2189 16.7293 8.86012Z" fill="white"/>
</svg>
